<?xml version="1.0" encoding="UTF-8"?>
<svg id="Layer_1" xmlns="http://www.w3.org/2000/svg" version="1.1" viewBox="0 0 410.34 412.35">
  <defs>
    <style>
      .st0 {
        fill-rule: evenodd;
      }
    </style>
  </defs>
  <path d="M83.31.16h4.8c2.25.58,2.94,2.21,2.94,4.32,0,.64.01,1.28.01,1.92-.04,12.83-.08,25.67-.11,38.5-.03,14.11-.04,28.23-.05,42.34,0,3.88-.06,7.76.06,11.63.07,2.33,1.03,3.39,3.32,3.41,3.19.04,6.39-.16,9.56-.44,1.79-.16,2.98-1.32,3.29-3.16.2-1.18.37-2.37.39-3.57.05-4.48.05-8.96.05-13.43-.01-25.59-.04-51.18-.05-76.77,0-2.69,0-4.01,3.14-4.76h186.24c.43.05.86.14,1.29.14,11.08.03,22.16.06,33.24.05,5.62,0,11.17.56,16.64,1.88,17.21,4.13,31.43,13.16,42.94,26.5,9.19,10.65,15.28,22.87,17.8,36.77,1.35,7.43,1.5,14.96,1.55,22.47.09,14.64-.03,29.27-.07,43.91,0,2.29-.63,2.89-2.93,2.93-.48,0-.96,0-1.44,0-40.76,0-81.51-.01-122.27.06-2.73,0-4.82-.78-6.76-2.65-5.36-5.13-11.24-9.62-17.6-13.44-22.67-13.65-47.06-18.41-73.13-13.63-20.3,3.72-37.88,13.02-52.99,27-2,1.85-4.16,2.7-6.9,2.7-41-.05-81.99-.04-122.99-.04-2.5,0-3.1-.59-3.1-3.12,0-3.68.08-7.36.06-11.04-.09-15.51-.75-31.03.48-46.53.75-9.41,2.85-18.46,6.84-27.03,6.03-12.95,15.31-23.21,26.54-31.84.17-.13.39-.18.62-.29.02.22.05.33.05.45-.02,24.48-.04,48.96-.06,73.43,0,3.4-.09,6.8.07,10.19.1,2.29,1.07,3.26,3.32,3.28,3.07.02,6.15-.15,9.21-.46,2.04-.21,3.04-1.43,3.32-3.53.17-1.3.26-2.63.26-3.95.03-27.68.04-55.36.05-83.03,0-.6-.01-1.2-.09-1.79-.37-2.77-.21-3.11,2.27-4.28,2.47-1.17,4.98-2.17,7.75-2.37,1.99-.15,2.49.38,2.21,2.32-.1.71-.17,1.43-.17,2.15,0,25.04.02,50.08.04,75.11,0,5.48-.04,10.96-.02,16.44,0,2.34.89,3.36,3.23,3.41,2.95.06,5.92,0,8.87-.22,2.73-.21,3.87-1.42,4.26-4.17.21-1.54.28-3.11.29-4.66.05-14.68.11-29.36.09-44.03-.02-14.56-.13-29.12-.2-43.67-.02-3.91.35-4.43,3.87-5.39ZM303.6,69.51h.01c0,7.64-.12,15.27.04,22.91.15,7.42,5.43,12.38,12.9,12.39,14.43.02,28.87.02,43.3,0,7.7-.01,13.09-5.31,13.12-13.01.05-14.79.06-29.59,0-44.38-.03-7.75-5.16-13.02-12.9-13.08-14.55-.11-29.11-.12-43.66,0-7.61.06-12.56,4.94-12.76,12.52-.19,7.55-.04,15.11-.04,22.67Z"/>
  <path class="st0" d="M119.61,147.31c-15.93,23.72-22.69,49.33-18.02,77.54,4.08,24.63,15.21,45.42,34.15,61.87,37.9,32.93,92.27,35.12,132.08,5.11,22.6-17.03,36.19-39.72,40.6-67.63,4.41-27.92-2.35-53.42-18.17-76.89h1.48c34.04-.02,68.08-.03,102.12-.05,3.76,0,7.52-.03,11.28-.03.72,0,1.44.02,2.16.1,1.75.21,2.74,1.08,2.86,2.84.17,2.35.19,4.71.19,7.07-.02,17.04-.07,34.08-.08,51.12-.03,41.56.04,83.12-.11,124.68-.07,20.41-7.49,38.08-21.21,53.06-12.1,13.2-27.03,21.57-44.67,24.84-4.46.83-9.05,1.29-13.58,1.29-83.36.07-166.72.25-250.07-.04-37.65-.13-68.88-25.1-77.89-60.99-1.79-7.13-2.52-14.39-2.51-21.74.03-38.76.03-77.52,0-116.28-.01-19.84-.1-39.68-.14-59.52,0-.88.05-1.76.14-2.63.26-2.47,1.35-3.59,3.86-3.71,2.63-.12,5.28-.09,7.91-.09,35.32.02,70.64.05,105.96.08h1.67Z"/>
  <path class="st0" d="M205.49,127.34c44.63.02,80.79,36.3,80.72,80.99-.07,44.84-36.11,80.65-81.16,80.63-44.67-.02-80.85-36.24-80.84-80.92,0-44.48,36.52-80.73,81.28-80.7ZM265.07,209.12c.18-33.12-25.56-60.99-60.39-60.51-33.01.46-59.69,27.94-58.68,60.65,1.01,33.03,27.64,59.5,61.21,58.59,31.65-.86,58.19-27.6,57.86-58.73Z"/>
</svg>
