<?xml version="1.0" encoding="utf-8"?>
<svg version="1.0" id="svg2474" xmlns:svg="http://www.w3.org/2000/svg"
	 xmlns="http://www.w3.org/2000/svg" xmlns:xlink="http://www.w3.org/1999/xlink" x="0px" y="0px" viewBox="-1.59 -1.59 1024 598"
	 style="enable-background:new -1.59 -1.59 1024 598;" xml:space="preserve">
<path id="path2465" d="M28.38,273.98c-2.06,0-3.7,1.6-3.97,3.87l-7.24,54.97l7.24,54.02c0.27,2.28,1.91,3.86,3.97,3.86
	c2,0,3.63-1.58,3.95-3.84l0,0v-0.01c0,0,0,0,0,0.01l8.58-54.05l-8.58-54.98C32.02,275.57,30.37,273.98,28.38,273.98z M69.08,243.94
	c-0.34-2.36-2.03-3.99-4.12-3.99c-2.1,0-3.83,1.68-4.12,3.99c0,0.02-9.73,88.88-9.73,88.88l9.73,86.91
	c0.28,2.33,2.01,4.01,4.12,4.01c2.08,0,3.77-1.64,4.11-3.99l11.07-86.93L69.08,243.94z M222.38,161.96c-3.99,0-7.29,3.27-7.48,7.42
	l-7.75,163.52l7.75,105.68c0.2,4.13,3.49,7.39,7.48,7.39c3.97,0,7.26-3.27,7.49-7.41v0.03l8.76-105.69l-8.76-163.52
	C229.64,165.23,226.35,161.96,222.38,161.96z M143.04,218.79c-3.07,0-5.57,2.45-5.81,5.72l-8.73,108.35l8.73,104.82
	c0.23,3.25,2.75,5.69,5.81,5.69c3.03,0,5.53-2.45,5.8-5.69l9.92-104.82l-9.92-108.37C148.57,221.24,146.07,218.79,143.04,218.79z
	 M303.02,445.95c4.95,0,8.97-3.99,9.17-9.1l7.6-103.9l-7.59-217.71c-0.2-5.11-4.23-9.1-9.17-9.1c-4.99,0-9.03,4-9.19,9.11
	c0,0.01-6.74,217.68-6.74,217.68l6.74,103.94C294,441.95,298.04,445.95,303.02,445.95z M468.09,446.44
	c6.81,0,12.43-5.61,12.56-12.51v0.07v-0.07l5.3-100.92l-5.3-251.43c-0.12-6.89-5.75-12.51-12.56-12.51
	c-6.82,0-12.45,5.61-12.56,12.52l-4.74,251.34c0,0.16,4.74,101.07,4.74,101.07C455.64,440.83,461.28,446.44,468.09,446.44z
	 M384.93,446.05c5.93,0,10.71-4.76,10.87-10.82v0.07l6.45-102.32l-6.46-219.28c-0.16-6.07-4.94-10.81-10.87-10.81
	c-5.97,0-10.75,4.75-10.88,10.81l-5.74,219.29l5.75,102.3C374.18,441.29,378.96,446.05,384.93,446.05z M182.56,445.09
	c3.52,0,6.38-2.82,6.64-6.53l9.34-105.7l-9.34-100.55c-0.26-3.71-3.11-6.51-6.64-6.51c-3.58,0-6.43,2.82-6.65,6.56l-8.23,100.5
	l8.23,105.69C176.14,442.27,178.98,445.09,182.56,445.09z M103.84,439.3c2.58,0,4.66-2.03,4.96-4.84l10.49-101.62l-10.48-105.45
	c-0.31-2.82-2.39-4.85-4.97-4.85c-2.61,0-4.69,2.04-4.96,4.85c0,0.01-9.24,105.45-9.24,105.45l9.24,101.6
	C99.14,437.25,101.22,439.3,103.84,439.3z M426.35,110.04c-6.44,0-11.6,5.12-11.73,11.68l-5.24,211.28l5.24,101.66
	c0.13,6.47,5.28,11.59,11.73,11.59c6.43,0,11.56-5.11,11.71-11.66v0.09L443.93,333l-5.88-211.31
	C437.91,115.16,432.78,110.04,426.35,110.04z M262.55,446.16c4.45,0,8.12-3.63,8.33-8.26l8.17-104.97l-8.17-200.92
	c-0.22-4.64-3.88-8.26-8.33-8.26c-4.49,0-8.15,3.63-8.34,8.26c0,0.01-7.24,200.92-7.24,200.92l7.25,105.02
	C254.4,442.53,258.06,446.16,262.55,446.16z M353.83,436.25v-0.05l7.02-103.24l-7.02-225.04c-0.17-5.59-4.58-9.97-10.02-9.97
	c-5.47,0-9.88,4.37-10.03,9.97l-6.24,225.03l6.25,103.29c0.15,5.53,4.56,9.91,10.02,9.91c5.45,0,9.83-4.37,10.02-9.94V436.25z
	 M885.11,203.24c-16.68,0-32.59,3.37-47.09,9.45C828.34,102.99,736.34,16.92,624.12,16.92c-27.46,0-54.23,5.41-77.87,14.55
	c-9.18,3.55-11.63,7.22-11.72,14.32v386.35c0.1,7.45,5.88,13.66,13.14,14.39c0.31,0.03,335.25,0.2,337.42,0.2
	c67.22,0,121.73-54.5,121.73-121.74S952.33,203.24,885.11,203.24z M509.65,45.45c-7.31,0-13.31,6-13.42,13.38l-5.49,274.22
	l5.5,99.52c0.1,7.27,6.1,13.26,13.41,13.26c7.29,0,13.29-5.99,13.4-13.37v0.12l5.97-99.53l-5.97-274.24
	C522.95,51.45,516.94,45.45,509.65,45.45z M115.47,524.11c-14.4-3.38-18.3-5.19-18.3-10.9c0-4.02,3.25-8.18,12.97-8.18
	c8.31,0,14.8,3.37,20.64,9.34l13.1-12.71c-8.57-8.95-18.94-14.27-33.08-14.27c-17.92,0-32.45,10.12-32.45,26.61
	c0,17.9,11.69,23.22,28.42,27.11c17.12,3.88,20.24,6.49,20.24,12.34c0,6.88-5.08,9.87-15.83,9.87c-8.7,0-16.87-2.98-23.23-10.4
	l-13.1,11.69c6.88,10.12,20.13,16.48,35.29,16.48c24.8,0,35.7-11.68,35.7-28.93C145.85,532.42,129.88,527.49,115.47,524.11z
	 M199.06,487.39c-24.78,0-39.43,19.2-39.43,46.84c0,27.64,14.66,46.83,39.43,46.83s39.45-19.19,39.45-46.83
	C238.52,506.59,223.84,487.39,199.06,487.39z M199.06,563.05c-14.66,0-20.76-12.59-20.76-28.8c0-16.22,6.11-28.81,20.76-28.81
	c14.68,0,20.76,12.59,20.76,28.81C219.83,550.46,213.74,563.05,199.06,563.05z M311.84,539.82c0,14.53-7.15,23.49-18.69,23.49
	c-11.55,0-18.55-9.22-18.55-23.74v-50.76h-18.18v51.01c0,26.46,14.8,41.25,36.73,41.25c23.1,0,36.86-15.19,36.86-41.51v-50.76
	h-18.17V539.82L311.84,539.82z M408.37,527.23c0,5.07,0.26,16.48,0.26,19.85c-1.17-2.34-4.15-6.88-6.35-10.26l-32.2-48.02H352.7
	v90.85h17.91v-39.98c0-5.07-0.26-16.48-0.26-19.85c1.16,2.33,4.16,6.88,6.35,10.26l33.36,49.57h16.22V488.8h-17.91V527.23
	L408.37,527.23z M478.05,488.81h-28.42v90.85h27.11c23.36,0,46.47-13.51,46.47-45.42C523.21,501.01,504,488.81,478.05,488.81z
	 M476.74,562.01h-8.94v-55.55h9.6c19.21,0,27.13,9.21,27.13,27.77C504.53,550.85,495.83,562.01,476.74,562.01z M579.4,505.42
	c8.17,0,13.37,3.64,16.61,9.87l16.87-7.78c-5.72-11.8-16.1-20.12-33.23-20.12c-23.72,0-40.35,19.2-40.35,46.84
	c0,28.67,15.95,46.83,39.7,46.83c16.49,0,27.38-7.65,33.61-20.5l-15.3-9.09c-4.8,8.06-9.61,11.56-17.78,11.56
	c-13.62,0-21.54-12.46-21.54-28.8C557.97,517.38,565.79,505.42,579.4,505.42z M646.78,488.81h-18.17v90.85h54.6v-17.92h-36.43
	V488.81z M731.07,487.39c-24.8,0-39.45,19.2-39.45,46.84c0,27.64,14.66,46.83,39.45,46.83c24.78,0,39.44-19.19,39.44-46.83
	C770.52,506.59,755.85,487.39,731.07,487.39z M731.07,563.05c-14.68,0-20.76-12.59-20.76-28.8c0-16.22,6.09-28.81,20.76-28.81
	c14.65,0,20.74,12.59,20.74,28.81C751.82,550.46,745.72,563.05,731.07,563.05z M843.83,539.82c0,14.53-7.12,23.49-18.67,23.49
	c-11.57,0-18.56-9.22-18.56-23.74v-50.76h-18.17v51.01c0,26.46,14.79,41.25,36.73,41.25c23.1,0,36.85-15.19,36.85-41.51v-50.76
	h-18.18V539.82z M913.12,488.81h-28.41v90.85h27.11c23.37,0,46.46-13.51,46.46-45.42C958.28,501.01,939.08,488.81,913.12,488.81z
	 M911.83,562.01h-8.95v-55.55h9.61c19.19,0,27.11,9.21,27.11,27.77C939.59,550.85,930.9,562.01,911.83,562.01z"/>
</svg>
